<svg width="56" height="56" viewBox="0 0 56 56" fill="none" xmlns="http://www.w3.org/2000/svg">
<g id="tabler-icon-file-cv">
<path id="Vector" d="M32.6665 7V16.3333C32.6665 16.9522 32.9123 17.5457 33.3499 17.9832C33.7875 18.4208 34.381 18.6667 34.9998 18.6667H44.3332M32.6665 7H16.3332C15.0955 7 13.9085 7.49167 13.0333 8.36683C12.1582 9.242 11.6665 10.429 11.6665 11.6667V44.3333C11.6665 45.571 12.1582 46.758 13.0333 47.6332C13.9085 48.5083 15.0955 49 16.3332 49H39.6665C40.9042 49 42.0912 48.5083 42.9663 47.6332C43.8415 46.758 44.3332 45.571 44.3332 44.3333V18.6667M32.6665 7L44.3332 18.6667M25.6665 29.1667C25.6665 28.2384 25.2978 27.3482 24.6414 26.6918C23.985 26.0354 23.0948 25.6667 22.1665 25.6667C21.2382 25.6667 20.348 26.0354 19.6916 26.6918C19.0353 27.3482 18.6665 28.2384 18.6665 29.1667V36.1667C18.6665 37.0949 19.0353 37.9852 19.6916 38.6415C20.348 39.2979 21.2382 39.6667 22.1665 39.6667C23.0948 39.6667 23.985 39.2979 24.6414 38.6415C25.2978 37.9852 25.6665 37.0949 25.6665 36.1667M30.3332 25.6667L33.8332 39.6667L37.3332 25.6667" stroke="white" stroke-width="3" stroke-linecap="round" stroke-linejoin="round"/>
</g>
</svg>
