<svg width="56" height="56" viewBox="0 0 56 56" fill="none" xmlns="http://www.w3.org/2000/svg">
<g id="tabler-icon-brand-behance">
<path id="Vector" d="M17.5 28C19.3565 28 21.137 27.2625 22.4497 25.9497C23.7625 24.637 24.5 22.8565 24.5 21C24.5 19.1435 23.7625 17.363 22.4497 16.0503C21.137 14.7375 19.3565 14 17.5 14H7V42H17.5C19.3565 42 21.137 41.2625 22.4497 39.9497C23.7625 38.637 24.5 36.8565 24.5 35C24.5 33.1435 23.7625 31.363 22.4497 30.0503C21.137 28.7375 19.3565 28 17.5 28ZM17.5 28H7M32.6667 30.3333H49C49 28.1674 48.1396 26.0902 46.608 24.5586C45.0765 23.0271 42.9993 22.1667 40.8333 22.1667C38.6674 22.1667 36.5902 23.0271 35.0586 24.5586C33.5271 26.0902 32.6667 28.1674 32.6667 30.3333ZM32.6667 30.3333V35C32.9073 36.7469 33.707 38.3689 34.946 39.6237C36.1851 40.8784 37.797 41.6983 39.5407 41.9609C41.2844 42.2235 43.0663 41.9147 44.6199 41.0806C46.1736 40.2464 47.4155 38.9318 48.16 37.3333M37.3333 14H44.3333" stroke="white" stroke-width="3" stroke-linecap="round" stroke-linejoin="round"/>
</g>
</svg>
