<svg width="24" height="24" viewBox="0 0 24 24" fill="none" xmlns="http://www.w3.org/2000/svg">
<path d="M11 11.5V10.5C11 10.1022 11.158 9.72064 11.4393 9.43934C11.7206 9.15804 12.1022 9 12.5 9C12.8978 9 13.2794 9.15804 13.5607 9.43934C13.842 9.72064 14 10.1022 14 10.5M14 10.5V12M14 10.5C14 10.1022 14.158 9.72064 14.4393 9.43934C14.7206 9.15804 15.1022 9 15.5 9C15.8978 9 16.2794 9.15804 16.5607 9.43934C16.842 9.72064 17 10.1022 17 10.5L16.9999 12V5.5C16.9999 5.10218 17.158 4.72064 17.4393 4.43934C17.7206 4.15804 18.1021 4 18.4999 4C18.8978 4 19.2793 4.15804 19.5606 4.43934C19.8419 4.72064 19.9999 5.10218 19.9999 5.5V16C19.9999 17.5913 19.3678 19.1174 18.2426 20.2426C17.1174 21.3679 15.5912 22 13.9999 22H11.9999H12.2079C11.2143 22.0002 10.2361 21.7535 9.36132 21.2823C8.48652 20.811 7.74245 20.1299 7.19594 19.3C7.13035 19.2002 7.06502 19.1002 6.99994 19C6.68794 18.521 5.59294 16.612 3.71394 13.272C3.52239 12.9315 3.47122 12.5298 3.57132 12.1522C3.67142 11.7745 3.91489 11.4509 4.24994 11.25C4.60682 11.0359 5.02501 10.9471 5.4381 10.9978C5.85119 11.0486 6.23548 11.2359 6.52994 11.53L7.99994 13L8 4.5C8 4.10218 8.15804 3.72064 8.43934 3.43934C8.72064 3.15804 9.10218 3 9.5 3C9.89782 3 10.2794 3.15804 10.5607 3.43934C10.842 3.72064 11 4.10218 11 4.5V12" stroke="black" stroke-width="2" stroke-linecap="round" stroke-linejoin="round"/>
</svg>
