<svg width="56" height="56" viewBox="0 0 56 56" fill="none" xmlns="http://www.w3.org/2000/svg">
<g id="tabler-icon-brand-git">
<path id="Vector" d="M28 21C27.3812 21 26.7877 20.7541 26.3501 20.3165C25.9125 19.879 25.6667 19.2855 25.6667 18.6666C25.6667 18.0478 25.9125 17.4543 26.3501 17.0167C26.7877 16.5791 27.3812 16.3333 28 16.3333C28.6189 16.3333 29.2124 16.5791 29.65 17.0167C30.0875 17.4543 30.3334 18.0478 30.3334 18.6666C30.3334 19.2855 30.0875 19.879 29.65 20.3165C29.2124 20.7541 28.6189 21 28 21ZM28 21V35M28 35C28.6189 35 29.2124 35.2458 29.65 35.6834C30.0875 36.121 30.3334 36.7145 30.3334 37.3333C30.3334 37.9521 30.0875 38.5456 29.65 38.9832C29.2124 39.4208 28.6189 39.6666 28 39.6666C27.3812 39.6666 26.7877 39.4208 26.3501 38.9832C25.9125 38.5456 25.6667 37.9521 25.6667 37.3333C25.6667 36.7145 25.9125 36.121 26.3501 35.6834C26.7877 35.2458 27.3812 35 28 35ZM35 25.6666L30.3334 21M25.6666 16.3335L21.2333 11.9002M35 28C35 28.6188 35.2459 29.2123 35.6835 29.6499C36.121 30.0875 36.7145 30.3333 37.3334 30.3333C37.9522 30.3333 38.5457 30.0875 38.9833 29.6499C39.4209 29.2123 39.6667 28.6188 39.6667 28C39.6667 27.3811 39.4209 26.7876 38.9833 26.35C38.5457 25.9125 37.9522 25.6666 37.3334 25.6666C36.7145 25.6666 36.121 25.9125 35.6835 26.35C35.2459 26.7876 35 27.3811 35 28ZM31.3742 6.06647L49.9358 24.6258C50.8306 25.5207 51.3333 26.7343 51.3333 27.9998C51.3333 29.2653 50.8306 30.4789 49.9358 31.3738L31.3742 49.9355C30.4793 50.8303 29.2657 51.333 28.0002 51.333C26.7347 51.333 25.521 50.8303 24.6262 49.9355L6.0645 31.3738C5.16969 30.4789 4.66699 29.2653 4.66699 27.9998C4.66699 26.7343 5.16969 25.5207 6.0645 24.6258L24.6262 6.06414C25.521 5.16932 26.7347 4.66663 28.0002 4.66663C29.2657 4.66663 30.4793 5.17166 31.3742 6.06647Z" stroke="white" stroke-width="3" stroke-linecap="round" stroke-linejoin="round"/>
</g>
</svg>
