<svg width="24" height="24" viewBox="0 0 24 24" fill="none" xmlns="http://www.w3.org/2000/svg">
<path d="M12 9C11.7348 9 11.4804 8.89464 11.2929 8.70711C11.1054 8.51957 11 8.26522 11 8C11 7.73478 11.1054 7.48043 11.2929 7.29289C11.4804 7.10536 11.7348 7 12 7C12.2652 7 12.5196 7.10536 12.7071 7.29289C12.8946 7.48043 13 7.73478 13 8C13 8.26522 12.8946 8.51957 12.7071 8.70711C12.5196 8.89464 12.2652 9 12 9ZM12 9V15M12 15C12.2652 15 12.5196 15.1054 12.7071 15.2929C12.8946 15.4804 13 15.7348 13 16C13 16.2652 12.8946 16.5196 12.7071 16.7071C12.5196 16.8946 12.2652 17 12 17C11.7348 17 11.4804 16.8946 11.2929 16.7071C11.1054 16.5196 11 16.2652 11 16C11 15.7348 11.1054 15.4804 11.2929 15.2929C11.4804 15.1054 11.7348 15 12 15ZM15 11L13 9M11.0001 6.99998L9.1001 5.09998M15 12C15 12.2652 15.1054 12.5196 15.2929 12.7071C15.4804 12.8946 15.7348 13 16 13C16.2652 13 16.5196 12.8946 16.7071 12.7071C16.8946 12.5196 17 12.2652 17 12C17 11.7348 16.8946 11.4804 16.7071 11.2929C16.5196 11.1054 16.2652 11 16 11C15.7348 11 15.4804 11.1054 15.2929 11.2929C15.1054 11.4804 15 11.7348 15 12ZM13.4459 2.60006L21.4009 10.5541C21.7844 10.9376 21.9999 11.4577 21.9999 12.0001C21.9999 12.5424 21.7844 13.0625 21.4009 13.4461L13.4459 21.4011C13.0624 21.7845 12.5423 22 11.9999 22C11.4576 22 10.9374 21.7845 10.5539 21.4011L2.59893 13.4461C2.21544 13.0625 2 12.5424 2 12.0001C2 11.4577 2.21544 10.9376 2.59893 10.5541L10.5539 2.59906C10.9374 2.21556 11.4576 2.00012 11.9999 2.00012C12.5423 2.00012 13.0624 2.21656 13.4459 2.60006Z" stroke="#FFA500" stroke-linecap="round" stroke-linejoin="round"/>
</svg>
